<svg xmlns="http://www.w3.org/2000/svg" xmlns:xlink="http://www.w3.org/1999/xlink" width="500" zoomAndPan="magnify" viewBox="0 0 375 374.999991" height="500" preserveAspectRatio="xMidYMid meet" version="1.0"><defs><clipPath id="17f0687f82"><path d="M 29.390625 0 L 351 0 L 351 375 L 29.390625 375 Z M 29.390625 0 " clip-rule="nonzero"/></clipPath><clipPath id="abda10f55a"><path d="M 0 324.296875 L 50.703125 324.296875 L 50.703125 375 L 0 375 Z M 0 324.296875 " clip-rule="nonzero"/></clipPath><clipPath id="612ad4c5ad"><path d="M 25.351562 324.296875 C 11.351562 324.296875 0 335.644531 0 349.648438 C 0 363.648438 11.351562 375 25.351562 375 C 39.355469 375 50.703125 363.648438 50.703125 349.648438 C 50.703125 335.644531 39.355469 324.296875 25.351562 324.296875 Z M 25.351562 324.296875 " clip-rule="nonzero"/></clipPath></defs><g clip-path="url(#17f0687f82)"><path fill="#0094ff" d="M 350.710938 0 L 29.632812 0 L 29.632812 279.019531 C 30.410156 282.1875 32.253906 284.449219 35.8125 286.484375 C 85.550781 314.953125 135.175781 343.617188 184.734375 372.402344 C 188.914062 374.835938 191.980469 374.972656 196.242188 372.503906 C 246 343.570312 295.859375 314.78125 345.789062 286.148438 C 348.214844 284.753906 349.769531 283.253906 350.710938 281.371094 Z M 299.792969 259.867188 C 265.144531 279.570312 230.640625 299.519531 196.234375 319.648438 C 191.953125 322.15625 188.996094 322.046875 184.78125 319.585938 C 149.941406 299.222656 114.902344 279.199219 80.070312 258.808594 C 77.796875 257.480469 75.355469 254.039062 75.347656 251.570312 C 75.101562 184.269531 75.15625 116.976562 75.191406 49.675781 C 75.191406 48.492188 75.472656 47.296875 75.671875 45.695312 L 305.46875 45.695312 L 305.46875 91.058594 L 122.128906 91.058594 C 121.9375 94.40625 121.6875 96.777344 121.6875 99.148438 C 121.660156 140.019531 121.765625 180.90625 121.550781 221.777344 C 121.523438 227.109375 122.871094 230.402344 127.691406 233.097656 C 146.828125 243.789062 165.828125 254.753906 184.6875 265.910156 C 188.796875 268.34375 191.863281 268.769531 196.1875 266.199219 C 215.46875 254.753906 235.027344 243.789062 254.324219 232.390625 C 256.523438 231.089844 259.082031 228.148438 259.15625 225.886719 C 259.609375 212.207031 259.382812 198.511719 259.382812 183.871094 L 167.917969 183.871094 L 167.917969 137.769531 L 305.402344 137.769531 C 305.558594 139.976562 305.867188 142.347656 305.867188 144.714844 C 305.894531 179.609375 305.773438 214.503906 305.992188 249.398438 C 306.027344 254.59375 304.320312 257.296875 299.792969 259.867188 Z M 299.792969 259.867188 " fill-opacity="1" fill-rule="nonzero"/></g></svg>